<svg xmlns:xlink="http://www.w3.org/1999/xlink" xmlns="http://www.w3.org/2000/svg" width="50" height="50" fill="#666a8e" viewBox="0 0 54.2 59.3"><path d="M46 4.6h-1.8v3.6h-3.6V10h3.6v3.7H46V10h3.7V8.2H46zM45.1 0a9.1 9.1 0 109.1 9.1 9.1 9.1 0 00-9-9.1zm0 16.4a7.3 7.3 0 117.3-7.3 7.3 7.3 0 01-7.3 7.3zM30.2 21.7H11a4.3 4.3 0 00-4.3 2.6L6 25.7l-1.3 3a.9.9 0 01-1 .6 8.6 8.6 0 00-2.4.1A1.6 1.6 0 00.2 32a3.4 3.4 0 002.4 2 19.7 19.7 0 00-.6 2 20.8 20.8 0 00-.7 3.7V49a10.6 10.6 0 00.1 1.5A1.5 1.5 0 002.8 52a20.2 20.2 0 003.6.1c1.5-.1 2-.7 2-2.2v-2.3H15l3-5h-7v-3.4h9l3-4.9H8.2c-2.4 0-2.6-.3-1.7-2.6l2.2-5.5a4 4 0 014.3-3l13 .1H29a4 4 0 01.6 0l1-1.6h-.3zm-22 19.8a2.2 2.2 0 01-4.4 0 2.2 2.2 0 014.4 0z"></path><g fill="#FFFFFF" stroke-miterlimit="10"><path d="M38.6 52.2l-1.5-.1c-.8-.1-1.4-.4-1.9-.9-.4-.5-.6-1-.6-2a26.8 26.8 0 010-1.7h-22l.7-1.1 3-4.9.1-.4h15.7v-2H17.6l.7-1 3-5 .2-.3h3.9a819.2 819.2 0 0011.6-.2l-.1-.5a13.4 13.4 0 00-1-2.3l-.8-2L34 25c-.4-1-1-1.6-2-1.7a3.2 3.2 0 00-.5 0H29.9a342.4 342.4 0 00-1.3 0h-1.3l.6-1.2 1-1.6.3-.4h2.5a72 72 0 011.4 0c1.2.1 2.2.5 3 1.1a6 6 0 012 2.7l1.2 3 .4.9h.3a27.4 27.4 0 011.9 0c1.2.1 2 .7 2.4 1.6.4.9.2 2-.6 2.9a7 7 0 01-1.6 1.4l.3 1 .2 1c.2 1.1.5 2.3.5 3.5V49c0 1-.2 1.7-.7 2.2-.5.5-1.1.7-2.1.9h-1.7zm-.9-12.9c-.7 0-1.4.6-1.4 1.4 0 .4.1.7.4 1 .3.3.6.4 1 .4.8 0 1.4-.6 1.5-1.3 0-.4-.2-.8-.4-1-.3-.3-.7-.5-1-.5z" fill="#FFFFFF"></path><path fill="#666a8e" d="M29.6 20.8l-1 1.7h2.1a208.5 208.5 0 011.3 0c1.3.2 2.1 1 2.6 2.2l2 4.8c.4.8.8 1.6 1 2.4.3 1.1 0 1.5-1.2 1.5l-11 .1H21.9l-3 4.9h14v3.5h-16l-3 4.9h21.4v2.4c0 1.4.6 2 2 2.1h2.9c1.5-.2 2.2-.8 2.2-2.3v-9.8c0-1.4-.5-3-.7-4.4-.1-.6-.4-1-.5-1.4.8-.6 1.5-1 2-1.6 1.1-1.5.5-3-1.4-3.3h-2.6c-.6-1.4-1.3-2.9-1.8-4.4a4.7 4.7 0 00-4.6-3.2 72.2 72.2 0 00-3.2 0m8.1 22c-1.2 0-2.2-1-2.2-2.2 0-1.2 1-2.2 2.2-2.1 1.2 0 2.2 1 2.2 2.2 0 1.1-1 2-2.2 2m-9-23.5h1a123 123 0 013.1 0l.4.1c2.6.2 4.6 1.6 5.6 4.2l1.2 3 .2.4a23 23 0 011.8 0c1.5.2 2.6 1 3 2.1.5 1.2.2 2.5-.7 3.6A7 7 0 0143 34l.1.6.2 1c.3 1.2.5 2.4.6 3.7V49c0 1.2-.3 2-1 2.7-.7.8-1.8 1-2.5 1.1H37c-1.1-.1-1.9-.5-2.4-1-.7-.9-.9-1.9-.9-2.5v-1H11.2l4.8-7.9h15.3v-.5h-15l4.8-7.9h.9a368.5 368.5 0 013.4 0H36a17.7 17.7 0 00-.7-2l-.9-1.9-1.2-2.8c-.4-1-.9-1.2-1.4-1.3h-.4-5.5l2.9-4.7zm9 22c.4 0 .7-.2.7-.6 0-.1 0-.3-.2-.4a.7.7 0 00-.5-.2c-.3 0-.6.3-.7.6l.2.5.5.2z"></path></g><path fill="#FFFFFF" d="M35.1 14.8a3 3 0 00-1.2-1.3 3.3 3.3 0 00-1.2-.4 1.6 1.6 0 00-1.6.6L27.4 20l-1 1.8-1 1.5-6 10v.2l-2.6 4.2-.5 1-1.4 2.2-.8 1.5-1.8 3-1.3 2.2-4.7 7.7a1.3 1.3 0 000 1.3 3 3 0 001.2 1.2 3.3 3.3 0 001.2.5 1.6 1.6 0 001.6-.6l5.7-9.4.4-.6L19 43 21 40l.4-.7 2.2-3.8.9-1.4 5-8.5 1-1.6 1-1.5 1-1.8 2.7-4.6a1.4 1.4 0 000-1.3zm-7.2 9.8L22.4 34l-.4.7-2.7 4.4-1.9 3.2-.3.5-2.3 4-.8 1.2-5.3 8.8a.4.4 0 01-.3.1.7.7 0 01-.3-.1c-.2-.1-.4-.4-.3-.6l5.1-8.3 1-1.6 2.1-3.6.5-.9 1.7-2.8.2-.4 2.7-4.4.2-.4L27 24l1-1.5.3-.6 1-1.8 3.4-5.6a.4.4 0 01.3-.1.7.7 0 01.3 0c.2.2.4.5.3.7l-3.2 5.2-1 1.8-.6 1z"></path><path fill="#666a8e" d="M34 15L9 56.4c0 .1-.2.2-.4.1a1 1 0 01-.3 0c-.3-.3-.4-.5-.3-.7l25-41.4c0-.1.1-.2.3-.2a1 1 0 01.3.2c.3.1.4.4.3.6z"></path></svg>
