<?xml version="1.0" standalone="no"?>
<!DOCTYPE svg PUBLIC "-//W3C//DTD SVG 20010904//EN"
 "http://www.w3.org/TR/2001/REC-SVG-20010904/DTD/svg10.dtd">
<svg version="1.0" xmlns="http://www.w3.org/2000/svg"
 width="1140.000000pt" height="641.000000pt" viewBox="0 0 1140.000000 641.000000"
 preserveAspectRatio="xMidYMid meet">

<g transform="translate(0.000000,641.000000) scale(0.100000,-0.100000)"
fill="#666a8e" stroke="none">
<path d="M5460 6184 c-241 -23 -426 -59 -645 -126 -318 -96 -670 -279 -940
-488 -84 -65 -306 -262 -339 -302 -11 -13 -52 -59 -91 -103 -593 -671 -849
-1597 -688 -2495 222 -1242 1210 -2212 2463 -2419 738 -122 1504 42 2126 455
764 508 1247 1313 1334 2227 18 179 8 532 -19 707 -42 265 -120 537 -223 769
-441 992 -1387 1672 -2463 1771 -100 9 -430 11 -515 4z m557 -539 c402 -53
807 -214 1128 -448 559 -408 929 -1039 1005 -1713 13 -121 14 -425 0 -544 -44
-402 -178 -766 -407 -1111 -118 -178 -330 -410 -498 -545 -194 -155 -482 -317
-710 -399 -787 -283 -1643 -151 -2322 356 -126 94 -378 346 -472 472 -280 375
-439 777 -492 1247 -7 65 -10 181 -6 310 5 216 23 345 72 539 221 874 925
1569 1805 1784 90 22 220 46 335 60 88 11 454 6 562 -8z"/>
<path d="M4350 4672 c-19 -21 -56 -55 -82 -75 -46 -38 -46 -38 -41 -90 3 -29
6 -53 7 -54 1 -2 31 18 67 43 l64 45 3 -211 2 -210 55 0 55 0 0 295 0 295 -48
0 c-43 0 -52 -4 -82 -38z"/>
<path d="M5285 4696 c-37 -17 -80 -62 -94 -99 -19 -50 -15 -57 34 -57 39 0 46
3 60 30 19 37 42 50 78 43 34 -7 52 -40 43 -78 -5 -19 -19 -32 -51 -46 -42
-19 -45 -22 -45 -59 0 -39 1 -40 34 -40 98 0 129 -132 40 -172 -32 -15 -89 11
-106 47 -10 22 -18 25 -60 25 -43 0 -48 -2 -48 -22 0 -41 43 -100 89 -125 122
-64 274 9 288 140 7 62 -34 130 -90 150 -7 3 -2 12 14 25 36 29 53 74 46 123
-13 95 -138 157 -232 115z"/>
<path d="M6146 4693 c-10 -32 -56 -254 -56 -269 0 -18 80 -19 143 -2 82 21
135 -29 121 -117 -9 -61 -32 -88 -74 -88 -25 0 -40 8 -61 31 -25 28 -35 32
-79 32 -45 0 -50 -2 -50 -23 0 -64 96 -137 181 -137 121 1 226 122 204 237
-20 107 -80 158 -188 158 l-68 0 5 29 c3 16 6 35 6 42 0 10 26 14 108 16 l107
3 3 53 3 52 -150 0 c-134 0 -150 -2 -155 -17z"/>
<path d="M4380 3917 c-50 -25 -50 -19 -50 -690 0 -688 0 -682 57 -706 25 -10
37 -10 66 3 52 21 57 51 57 344 l0 252 385 0 385 0 0 -274 c0 -275 0 -275 24
-302 18 -21 32 -28 61 -28 29 0 43 7 61 28 24 27 24 27 24 302 l0 274 369 0
369 0 0 -247 c0 -137 1 -256 1 -266 1 -28 56 -77 85 -77 14 0 40 13 58 29 l33
29 3 266 3 266 355 0 354 0 0 -266 c0 -294 4 -313 63 -333 35 -13 90 7 106 37
7 14 11 135 11 356 l0 336 -29 32 -28 32 -417 -1 -416 0 0 269 c0 280 -2 297
-44 330 -41 34 -116 11 -134 -40 -6 -18 -9 -130 -7 -284 2 -140 0 -259 -3
-265 -5 -6 -135 -10 -367 -9 l-360 1 -5 290 c-3 160 -7 291 -8 292 -1 1 -15 9
-32 18 -42 22 -74 19 -103 -11 l-27 -26 -2 -282 -3 -281 -382 -2 -383 -1 0
269 c0 221 -3 275 -15 299 -25 48 -66 62 -115 37z"/>
<path d="M4341 2350 c-68 -16 -131 -87 -131 -146 l0 -34 55 0 c52 0 55 1 55
25 0 57 88 87 130 45 46 -46 16 -111 -105 -230 -93 -92 -139 -156 -149 -207
-5 -32 -4 -33 27 -34 31 -1 229 -1 315 0 l42 1 0 50 0 50 -121 0 -120 0 58 48
c74 62 146 142 166 184 50 107 9 212 -96 243 -55 16 -74 17 -126 5z"/>
<path d="M5395 2333 c-10 -16 -74 -103 -142 -195 -119 -160 -124 -169 -121
-210 l3 -43 133 -3 132 -3 0 -54 c0 -58 -2 -57 60 -57 17 0 35 1 40 1 6 1 10
26 10 56 l0 55 35 0 35 0 0 50 0 50 -35 0 -35 0 0 190 0 190 -49 0 c-42 0 -51
-4 -66 -27z m2 -350 c-3 -2 -34 -3 -70 -1 l-66 3 67 89 67 90 3 -88 c2 -49 1
-90 -1 -93z"/>
<path d="M6240 2349 c-50 -15 -97 -54 -120 -99 -40 -78 -49 -237 -19 -343 13
-47 63 -106 106 -123 39 -17 121 -18 160 -3 115 43 151 218 64 312 -55 60
-136 75 -199 37 l-34 -21 7 33 c14 72 27 99 55 113 36 19 75 6 92 -30 11 -24
15 -25 62 -19 28 4 53 8 55 10 11 9 -48 101 -75 116 -39 23 -109 30 -154 17z
m101 -305 c20 -21 24 -36 24 -86 0 -51 -4 -63 -24 -79 -51 -41 -116 -9 -128
64 -16 100 67 166 128 101z"/>
<path d="M6980 2071 l0 -291 55 0 55 0 0 121 0 122 45 -6 c56 -6 73 -21 138
-117 79 -119 81 -120 154 -120 35 0 63 3 63 6 0 16 -135 207 -156 220 -32 22
-30 30 7 38 96 19 142 169 77 252 -37 46 -78 56 -265 62 l-173 5 0 -292z m327
167 c20 -21 23 -82 5 -101 -14 -13 -152 -26 -192 -17 -23 5 -25 10 -28 63 -1
33 1 63 4 69 4 6 45 8 100 6 72 -2 97 -7 111 -20z"/>
</g>
</svg>
