<?xml version="1.0" standalone="no"?>
<!DOCTYPE svg PUBLIC "-//W3C//DTD SVG 20010904//EN"
 "http://www.w3.org/TR/2001/REC-SVG-20010904/DTD/svg10.dtd">
<svg version="1.0" xmlns="http://www.w3.org/2000/svg"
 width="512.000000pt" height="512.000000pt" viewBox="0 0 512.000000 512.000000"
 preserveAspectRatio="xMidYMid meet">

<g transform="translate(0.000000,512.000000) scale(0.100000,-0.100000)"
fill="#666a8e" stroke="none">
<path d="M2230 4876 c-529 -154 -836 -249 -856 -263 -71 -51 -79 -131 -29
-290 28 -90 62 -139 112 -159 49 -21 81 -17 230 26 105 31 139 37 145 28 14
-23 9 -26 -59 -37 -106 -18 -287 -68 -387 -108 -966 -378 -1513 -1373 -1310
-2383 138 -688 617 -1267 1270 -1534 601 -246 1306 -195 1858 134 364 217 638
512 821 885 152 309 216 584 216 930 0 293 -44 529 -150 793 l-21 52 170 0
170 0 0 -210 c0 -115 5 -232 11 -260 16 -75 64 -139 128 -172 51 -27 59 -28
200 -28 132 0 151 2 197 24 28 13 65 41 83 62 64 78 62 24 59 1280 l-3 1139
-29 53 c-58 104 -119 131 -300 132 -154 0 -193 -10 -256 -67 -71 -64 -82 -100
-88 -286 -4 -151 -5 -157 -26 -162 -31 -6 -1016 -105 -1046 -105 -22 0 -34 16
-93 129 -37 70 -67 133 -67 138 0 6 11 14 24 17 39 10 94 79 101 128 7 47 -37
221 -72 281 -22 39 -94 77 -143 76 -19 -1 -406 -110 -860 -243z m887 -6 c12
-41 20 -76 18 -79 -4 -3 -1508 -445 -1592 -467 -19 -5 -23 1 -38 52 -9 32 -18
69 -18 82 -2 23 23 31 793 257 437 128 799 232 805 231 5 -2 20 -36 32 -76z
m1778 -95 l25 -24 0 -1125 0 -1125 -24 -28 c-23 -26 -30 -28 -117 -32 -52 -2
-109 2 -131 8 -73 22 -68 -57 -68 1176 0 822 3 1112 12 1128 22 42 38 46 161
47 112 0 119 -1 142 -25z m-1826 -320 c34 -63 61 -118 61 -123 0 -4 -237 -31
-527 -60 -291 -29 -539 -55 -553 -58 -22 -4 -29 1 -43 30 l-16 35 37 11 c20 5
242 70 492 144 250 74 462 134 472 135 11 1 35 -35 77 -114z m1341 -750 l0
-585 -80 0 -80 0 0 575 0 574 33 5 c17 3 48 7 67 9 19 2 41 5 48 5 9 2 12
-121 12 -583z m-330 -20 l0 -565 -170 0 -170 0 0 -85 0 -85 73 0 73 0 33 -77
c223 -518 208 -1111 -40 -1614 -158 -320 -369 -563 -662 -760 -973 -654 -2300
-297 -2817 757 -223 455 -259 978 -99 1459 195 586 647 1036 1240 1234 152 51
319 78 749 121 223 23 700 72 1060 110 360 37 672 68 693 69 l37 1 0 -565z"/>
<path d="M1960 3784 c-507 -63 -943 -328 -1221 -742 -518 -772 -307 -1821 471
-2340 306 -204 701 -306 1062 -274 509 46 947 294 1243 707 124 173 236 435
282 660 28 139 25 502 -5 642 -74 342 -223 615 -466 859 -245 244 -526 395
-866 465 -93 19 -412 34 -500 23z m510 -197 c320 -76 593 -238 803 -475 478
-540 510 -1337 76 -1915 -223 -298 -542 -498 -919 -578 -142 -30 -418 -33
-560 -5 -645 126 -1133 629 -1231 1271 -18 120 -16 356 4 470 81 455 346 836
741 1067 140 82 366 161 539 187 34 6 148 8 252 6 160 -3 207 -7 295 -28z"/>
<path d="M1905 3435 c-415 -76 -773 -341 -963 -713 -105 -204 -146 -378 -146
-617 0 -182 16 -279 71 -439 59 -170 144 -317 260 -447 276 -311 649 -471
1063 -455 215 8 360 45 555 141 372 184 646 551 721 965 23 127 23 354 0 474
-103 534 -486 940 -1009 1072 -87 22 -129 27 -287 30 -133 2 -207 -1 -265 -11z
m497 -180 c35 -9 84 -23 110 -31 l47 -15 -78 -77 c-120 -120 -195 -241 -245
-400 -14 -45 -29 -107 -32 -136 -8 -69 -16 -81 -41 -67 -48 25 -104 220 -105
366 -1 108 19 190 70 290 51 102 46 98 134 92 43 -4 106 -13 140 -22z m-449
-42 c-83 -188 -85 -413 -7 -639 36 -105 18 -121 -65 -60 -107 79 -214 219
-265 350 -31 76 -56 183 -56 237 0 36 2 37 78 71 116 53 251 95 314 97 l27 1
-26 -57z m841 -128 c124 -82 275 -230 244 -239 -7 -2 -51 -13 -98 -25 -192
-48 -365 -160 -501 -323 -41 -50 -49 -55 -65 -44 -15 11 -16 23 -10 79 18 178
118 373 253 497 49 45 109 90 121 90 2 0 27 -16 56 -35z m-1374 -160 c26 -105
80 -226 141 -316 44 -66 148 -176 207 -220 75 -57 -4 -77 -154 -39 -160 41
-323 141 -419 258 -76 91 -76 91 -19 175 46 68 210 245 218 236 2 -2 14 -44
26 -94z m1782 -312 c50 -109 82 -210 102 -321 l6 -32 -48 24 c-184 93 -426 99
-653 16 -81 -29 -98 -29 -99 3 0 19 63 97 133 163 114 109 234 172 387 205
138 29 132 31 172 -58z m-2066 -182 c156 -149 322 -230 547 -266 89 -14 14
-76 -141 -116 -184 -47 -325 -31 -492 54 l-85 44 3 59 c4 91 54 314 70 314 2
0 47 -40 98 -89z m1085 -86 c129 -44 198 -182 157 -317 -16 -53 -88 -132 -140
-153 -66 -27 -145 -24 -211 9 -89 43 -137 122 -137 223 0 174 167 294 331 238z
m918 -193 c46 -18 105 -46 132 -63 48 -30 49 -32 43 -73 -19 -148 -37 -229
-64 -302 -10 -26 -11 -25 -83 48 -143 147 -332 246 -532 279 -66 11 -75 15
-75 35 0 32 116 80 260 108 14 2 72 3 130 2 88 -3 118 -8 189 -34z m-2119
-223 c199 -96 418 -100 664 -12 56 20 70 22 77 11 13 -20 12 -22 -37 -87 -75
-100 -200 -198 -319 -250 -65 -29 -198 -61 -252 -61 -39 0 -44 3 -63 39 -49
97 -86 210 -116 359 -5 27 -8 27 46 1z m1680 -76 c175 -50 366 -189 436 -318
l17 -32 -44 -64 c-24 -35 -84 -106 -134 -158 l-90 -93 -8 33 c-46 183 -106
317 -191 428 -45 58 -183 191 -198 191 -12 0 -9 25 4 38 17 17 96 7 208 -25z
m-790 -99 c11 -12 11 -30 1 -96 -33 -214 -149 -406 -326 -537 -46 -34 -50 -33
-145 39 -56 42 -210 188 -210 200 0 4 35 14 78 23 194 43 403 172 526 326 27
33 52 61 56 61 4 0 13 -7 20 -16z m480 -49 c68 -50 173 -164 213 -232 48 -83
86 -182 103 -270 22 -118 22 -119 -43 -152 -104 -51 -343 -124 -359 -109 -2 3
7 30 21 60 14 31 35 93 46 139 37 146 18 354 -49 527 -18 48 -19 53 -4 62 23
13 19 14 72 -25z m-237 -72 c43 -99 58 -164 64 -278 7 -135 -8 -201 -72 -332
-52 -105 -42 -100 -171 -82 -65 9 -242 53 -252 63 -1 2 27 32 64 67 92 89 149
168 205 284 48 99 89 239 89 303 0 27 4 32 24 32 19 0 28 -11 49 -57z"/>
</g>
</svg>
