<?xml version="1.0" standalone="no"?>
<!DOCTYPE svg PUBLIC "-//W3C//DTD SVG 20010904//EN"
 "http://www.w3.org/TR/2001/REC-SVG-20010904/DTD/svg10.dtd">
<svg version="1.0" xmlns="http://www.w3.org/2000/svg"
 width="850.000000pt" height="850.000000pt" viewBox="0 0 850.000000 850.000000"
 preserveAspectRatio="xMidYMid meet">

<g transform="translate(0.000000,850.000000) scale(0.100000,-0.100000)"
fill="#666a8e" stroke="none">
<path d="M3610 7853 c-19 -2 -39 -8 -45 -13 -5 -4 -27 -10 -47 -14 -21 -4 -38
-11 -38 -15 0 -5 -12 -12 -27 -15 -79 -19 -212 -146 -289 -276 -55 -91 -154
-170 -213 -170 -12 0 -21 -4 -21 -10 0 -6 -38 -10 -94 -10 -92 0 -182 -12
-221 -29 -138 -60 -142 -63 -218 -137 -71 -68 -88 -92 -122 -160 -54 -111 -65
-161 -65 -295 0 -48 -4 -90 -9 -93 -4 -3 -11 -24 -15 -46 -3 -22 -11 -40 -16
-40 -6 0 -10 -7 -10 -15 0 -23 -76 -101 -128 -131 -50 -29 -146 -100 -175
-130 -40 -41 -99 -129 -104 -156 -3 -15 -9 -28 -14 -28 -4 0 -11 -17 -15 -37
-4 -21 -12 -44 -18 -52 -15 -19 -15 -273 1 -292 6 -8 14 -31 18 -51 4 -21 11
-38 15 -38 4 0 13 -19 20 -42 8 -24 24 -60 37 -80 48 -78 55 -221 14 -298 -10
-19 -26 -48 -35 -65 -28 -53 -56 -123 -56 -142 0 -11 -4 -23 -10 -29 -15 -15
-24 -183 -12 -239 20 -90 35 -145 42 -145 4 0 13 -18 20 -40 7 -22 17 -40 21
-40 4 0 11 -9 14 -21 11 -34 174 -189 199 -189 11 0 97 -63 123 -90 35 -38 73
-108 73 -137 0 -12 5 -25 10 -28 6 -3 10 -46 10 -94 0 -135 11 -182 73 -311
25 -52 182 -214 218 -225 13 -4 26 -11 29 -14 3 -4 23 -14 45 -22 51 -19 55
-41 20 -117 -15 -31 -36 -77 -47 -102 -11 -25 -35 -76 -53 -115 -18 -38 -42
-92 -55 -120 -12 -27 -38 -83 -56 -122 -19 -40 -49 -106 -68 -145 -18 -40 -47
-102 -64 -138 -16 -36 -46 -101 -67 -145 -20 -44 -47 -102 -60 -130 -13 -27
-39 -84 -58 -125 -79 -173 -100 -217 -118 -256 -10 -22 -19 -46 -19 -52 0 -7
-4 -12 -10 -12 -5 0 -10 -5 -10 -12 0 -10 -40 -103 -60 -140 -25 -44 -5 -118
41 -161 23 -22 27 -22 546 -27 l522 -5 26 -34 c13 -19 29 -37 33 -40 4 -3 21
-24 38 -46 16 -22 34 -44 40 -50 6 -5 26 -30 44 -55 18 -25 38 -49 45 -55 6
-5 33 -39 59 -75 27 -36 54 -69 60 -75 7 -5 25 -28 41 -50 17 -21 37 -47 45
-55 8 -9 46 -56 84 -104 72 -93 132 -133 168 -115 9 5 24 9 33 9 20 0 75 40
75 54 0 6 9 29 19 51 11 22 27 58 36 80 10 22 26 60 37 85 11 25 23 54 28 65
5 11 17 40 28 65 11 25 28 63 37 85 10 22 26 58 35 80 10 22 26 58 35 80 10
22 26 58 35 80 53 117 60 134 60 139 0 2 16 39 36 83 19 43 44 98 55 123 29
65 34 73 47 78 7 2 12 -6 12 -17 0 -12 4 -21 9 -21 5 0 12 -11 15 -25 4 -14
22 -59 41 -99 18 -40 37 -84 40 -99 4 -15 11 -27 15 -27 4 0 11 -12 14 -26 6
-23 35 -89 87 -200 10 -23 19 -44 19 -48 0 -6 18 -46 86 -193 13 -28 24 -55
24 -58 0 -6 18 -48 65 -150 12 -27 28 -66 34 -85 6 -19 23 -48 36 -63 26 -29
111 -62 121 -46 3 5 14 9 25 9 26 0 66 41 180 185 30 39 93 117 139 175 47 58
92 113 100 124 8 10 31 38 51 61 20 23 64 79 99 124 l62 81 512 0 511 0 37 25
c58 40 72 121 32 195 -7 14 -25 51 -39 82 -14 32 -36 82 -49 110 -59 130 -99
217 -121 263 -13 28 -40 86 -60 130 -21 44 -51 109 -67 145 -17 36 -45 97 -63
135 -18 39 -51 108 -73 155 -22 47 -44 97 -47 113 -4 15 -11 27 -16 27 -5 0
-9 5 -9 11 0 5 -18 49 -41 97 -61 129 -94 200 -124 267 -14 33 -33 74 -42 91
-21 42 -12 60 36 75 23 7 41 16 41 21 0 4 6 8 14 8 16 0 107 69 145 109 41 44
111 151 111 172 0 10 4 19 9 19 4 0 13 26 19 58 6 31 14 71 17 87 4 17 10 77
15 135 8 113 23 153 84 218 28 30 110 92 122 92 22 0 167 135 199 185 31 47
64 119 65 135 0 9 4 20 10 26 5 5 15 47 21 93 13 94 0 238 -26 288 -8 15 -15
35 -15 44 0 9 -7 22 -15 29 -8 7 -15 21 -15 31 0 10 -4 20 -9 23 -5 4 -20 27
-33 54 -19 39 -23 63 -23 144 0 64 4 101 13 110 6 6 12 20 12 30 0 10 9 26 20
35 11 10 20 22 20 28 1 5 9 28 20 50 11 22 19 47 20 56 0 8 5 20 10 25 20 20
32 175 21 264 -6 46 -15 88 -21 94 -5 5 -10 17 -10 26 -1 21 -39 96 -76 150
-44 62 -104 116 -206 182 -147 97 -176 143 -188 298 -14 178 -28 239 -70 323
-22 43 -57 98 -77 123 -43 51 -158 144 -179 144 -8 0 -14 4 -14 9 0 5 -15 13
-32 16 -18 4 -37 11 -43 15 -19 15 -128 30 -216 30 -48 0 -90 4 -93 9 -3 4
-24 11 -46 15 -22 3 -40 11 -40 16 0 6 -6 10 -14 10 -20 0 -109 82 -126 116
-31 62 -124 177 -183 226 -62 51 -169 108 -204 108 -11 0 -25 6 -31 13 -9 8
-53 12 -147 12 -94 0 -138 -4 -146 -12 -7 -7 -22 -13 -33 -13 -20 0 -187 -78
-197 -93 -3 -4 -36 -13 -72 -20 -68 -11 -192 1 -206 20 -10 15 -177 93 -197
93 -11 0 -25 5 -30 10 -12 12 -197 21 -254 13z m273 -322 c48 -24 87 -48 87
-52 0 -5 11 -9 25 -9 14 0 33 -4 43 -9 66 -33 80 -36 196 -36 104 1 128 4 167
23 25 12 50 22 55 22 10 0 36 14 139 71 55 30 67 33 150 33 115 1 153 -15 236
-96 21 -21 45 -52 54 -70 29 -62 117 -168 175 -213 67 -51 145 -95 171 -95 9
0 19 -4 21 -9 4 -12 123 -31 253 -41 93 -7 133 -15 145 -29 3 -4 22 -17 42
-31 91 -60 133 -164 141 -342 2 -65 9 -123 15 -130 5 -7 13 -29 17 -48 11 -52
82 -168 134 -220 48 -47 164 -130 182 -130 18 0 103 -93 129 -140 21 -39 24
-58 24 -140 0 -82 -3 -103 -26 -152 -15 -31 -31 -59 -37 -62 -5 -4 -12 -20
-16 -36 -4 -17 -10 -30 -15 -30 -4 0 -11 -17 -15 -37 -4 -21 -12 -44 -18 -52
-17 -20 -16 -296 1 -312 6 -7 12 -21 12 -30 0 -10 11 -40 25 -67 14 -28 25
-55 25 -61 0 -6 3 -11 8 -11 4 0 18 -24 32 -52 21 -45 25 -67 25 -148 -1 -80
-5 -102 -24 -138 -26 -47 -104 -128 -132 -137 -11 -4 -19 -10 -19 -15 0 -4
-10 -10 -22 -14 -31 -7 -60 -30 -132 -103 -58 -59 -106 -124 -106 -144 0 -5
-4 -9 -9 -9 -5 0 -15 -24 -21 -52 -7 -29 -17 -59 -23 -66 -6 -7 -12 -71 -15
-143 -3 -71 -9 -132 -13 -135 -5 -3 -9 -16 -9 -29 0 -27 -59 -118 -97 -149
-41 -33 -106 -66 -130 -66 -12 0 -25 -4 -28 -10 -3 -5 -46 -10 -94 -10 -88 0
-197 -15 -216 -30 -5 -4 -25 -11 -42 -15 -18 -3 -33 -10 -33 -14 0 -4 -15 -13
-34 -19 -32 -12 -186 -148 -186 -164 0 -5 -16 -30 -35 -57 -19 -26 -35 -53
-35 -58 0 -18 -86 -99 -135 -128 -45 -26 -59 -29 -140 -29 -88 0 -92 1 -180
48 -49 26 -94 51 -100 55 -5 5 -26 12 -45 16 -19 4 -41 12 -49 19 -20 16 -286
15 -303 -1 -6 -7 -20 -13 -30 -13 -16 0 -83 -32 -148 -70 -74 -43 -118 -55
-203 -55 -50 0 -91 5 -95 11 -4 5 -22 16 -39 23 -41 17 -92 69 -143 146 -21
33 -58 84 -82 114 -44 55 -161 151 -184 151 -8 0 -14 4 -14 9 0 5 -14 12 -30
16 -17 4 -44 14 -61 22 -21 10 -73 17 -160 21 -71 3 -132 9 -135 13 -3 5 -15
9 -27 9 -25 0 -110 43 -135 68 -29 29 -78 96 -87 117 -4 11 -11 67 -16 125
-11 136 -26 226 -44 270 -21 47 -67 134 -75 140 -3 3 -19 22 -35 44 -32 42
-150 136 -171 136 -8 0 -14 4 -14 9 0 5 -8 12 -19 16 -17 5 -83 66 -106 97
-40 54 -50 93 -49 187 0 90 2 100 33 156 61 109 71 130 71 145 0 9 5 21 11 27
21 21 33 201 20 296 -7 48 -17 87 -21 87 -4 0 -11 16 -14 35 -4 19 -10 35 -15
35 -4 0 -14 18 -21 40 -7 22 -16 40 -21 40 -4 0 -10 12 -14 27 -3 15 -12 31
-18 35 -8 5 -12 41 -12 106 0 88 3 104 28 154 29 57 86 113 162 158 131 78
224 185 282 326 17 39 32 135 42 264 5 58 12 114 17 125 13 34 72 107 106 131
18 13 38 27 43 32 22 18 55 25 155 33 133 10 226 25 267 44 17 8 35 15 40 15
10 0 129 77 162 105 32 28 137 165 145 191 6 19 71 91 108 120 13 11 63 35 98
48 8 3 49 4 90 3 66 -2 85 -7 163 -46z m-844 -4286 c59 -38 81 -62 146 -166
33 -53 55 -80 105 -129 77 -78 148 -122 230 -142 25 -6 51 -16 59 -22 17 -14
255 -13 273 1 7 6 29 13 48 17 33 6 180 76 209 100 20 16 233 15 239 -1 2 -7
10 -13 18 -13 8 0 14 -9 14 -20 0 -11 -4 -20 -9 -20 -4 0 -14 -20 -21 -45 -7
-25 -16 -45 -21 -45 -4 0 -11 -16 -15 -35 -3 -19 -10 -35 -14 -35 -4 0 -11
-12 -15 -27 -3 -16 -22 -60 -41 -100 -19 -39 -34 -74 -34 -78 0 -3 -16 -39
-35 -80 -19 -41 -37 -86 -41 -100 -3 -14 -10 -25 -15 -25 -5 0 -9 -8 -9 -18 0
-10 -8 -29 -17 -42 -10 -14 -17 -27 -17 -30 2 -8 -7 -30 -42 -107 -18 -40 -36
-84 -40 -98 -3 -14 -10 -25 -15 -25 -5 0 -9 -4 -9 -9 0 -5 -5 -22 -12 -38 -6
-15 -12 -30 -13 -33 -1 -3 -7 -18 -15 -35 -7 -16 -21 -48 -30 -70 -10 -22 -25
-56 -34 -77 -9 -20 -16 -41 -16 -47 0 -6 -4 -11 -9 -11 -5 0 -13 -15 -16 -32
-4 -18 -13 -44 -21 -58 -32 -61 -83 -177 -90 -202 -3 -16 -10 -28 -14 -28 -4
0 -11 -12 -15 -27 -3 -16 -22 -61 -41 -101 -19 -41 -34 -78 -34 -83 0 -15 -29
-10 -45 9 -8 9 -66 82 -130 162 -63 80 -128 161 -144 180 -16 19 -59 73 -97
120 -37 47 -72 87 -76 88 -5 2 -16 11 -25 20 -15 15 -62 17 -450 20 -479 3
-450 -2 -414 69 11 21 29 61 41 88 12 28 34 77 50 110 35 74 89 191 124 267
14 31 26 62 26 67 0 6 4 11 9 11 5 0 12 11 15 25 4 14 24 62 46 107 22 46 40
89 40 96 0 6 5 12 10 12 6 0 10 5 10 11 0 6 15 44 34 83 53 110 86 186 86 196
0 6 5 10 10 10 6 0 10 5 10 11 0 10 23 64 80 184 15 33 46 99 68 147 l41 87
37 -11 c21 -5 53 -20 73 -33z m2518 18 c3 -10 24 -56 45 -103 22 -47 48 -103
58 -125 26 -58 88 -192 115 -250 13 -27 40 -86 60 -130 20 -44 54 -116 75
-160 21 -44 41 -91 45 -105 4 -14 11 -27 14 -30 9 -7 61 -125 61 -139 0 -6 5
-11 10 -11 6 0 10 -6 10 -12 0 -7 15 -44 34 -83 46 -95 98 -207 130 -280 15
-33 33 -72 41 -87 8 -14 15 -29 15 -32 0 -3 -195 -7 -433 -8 l-434 -3 -36 -28
c-41 -31 -89 -89 -292 -347 -164 -208 -186 -233 -207 -225 -9 4 -19 18 -23 33
-3 15 -14 45 -24 67 -10 22 -25 56 -34 75 -31 71 -59 136 -77 175 -9 22 -25
58 -35 80 -19 44 -43 100 -69 157 -9 20 -16 41 -16 47 0 6 -4 11 -9 11 -5 0
-12 12 -16 27 -3 15 -16 48 -27 73 -11 25 -28 63 -38 85 -9 22 -25 58 -35 80
-40 92 -57 131 -66 147 -5 10 -9 25 -9 33 0 8 4 23 9 33 16 30 100 222 106
242 1 3 12 28 24 55 43 93 94 208 104 236 5 15 23 17 122 17 64 0 121 5 128
10 7 5 28 13 47 17 39 8 118 44 138 63 7 6 18 12 23 12 26 0 179 172 179 200
0 6 4 10 10 10 5 0 16 16 26 35 47 100 229 200 251 138z"/>
<path d="M5301 6299 c-17 -23 -31 -45 -31 -50 0 -4 -16 -26 -35 -49 -19 -23
-35 -46 -35 -51 0 -7 -65 -107 -88 -134 -5 -6 -11 -15 -13 -20 -7 -18 -93
-160 -100 -165 -3 -3 -25 -39 -49 -80 -24 -41 -56 -91 -72 -111 -15 -20 -28
-40 -28 -44 0 -4 -16 -30 -35 -56 -19 -27 -35 -51 -35 -53 0 -2 -24 -40 -52
-85 -29 -44 -71 -110 -93 -146 -22 -36 -55 -85 -72 -110 -18 -24 -33 -48 -33
-54 0 -5 -6 -16 -12 -23 -17 -18 -58 -76 -58 -82 0 -2 -18 -32 -40 -65 -22
-33 -40 -65 -40 -71 0 -5 -4 -10 -8 -10 -5 0 -16 -15 -25 -32 -16 -31 -32 -58
-50 -82 -52 -74 -79 -115 -88 -136 -5 -13 -14 -27 -18 -30 -4 -3 -21 -27 -36
-55 -16 -27 -32 -52 -35 -55 -4 -3 -9 -13 -13 -22 -9 -25 -19 -23 -59 15 -29
27 -108 97 -192 170 -11 10 -45 41 -76 70 -31 29 -90 81 -130 117 -132 118
-255 228 -309 279 -21 20 -65 59 -97 88 -33 28 -76 67 -98 87 -21 20 -44 36
-50 36 -15 0 -186 -185 -186 -202 0 -4 12 -16 28 -28 15 -12 47 -40 72 -63 25
-24 78 -72 119 -107 41 -36 82 -72 91 -80 9 -8 50 -44 90 -80 40 -36 90 -81
111 -100 20 -19 47 -44 60 -54 12 -10 52 -46 88 -79 113 -103 176 -161 222
-201 75 -67 189 -169 228 -206 82 -77 123 -110 131 -105 5 3 22 28 37 55 15
28 31 50 36 50 4 0 7 5 7 10 0 12 52 94 63 98 4 2 7 8 7 14 0 6 11 26 25 44
14 18 25 35 25 39 0 3 5 11 10 18 21 25 60 88 60 97 0 6 4 10 9 10 5 0 14 14
21 30 7 17 16 30 21 30 5 0 9 5 9 10 0 12 52 94 63 98 4 2 7 8 7 13 0 8 40 74
63 104 23 30 57 87 57 95 0 6 3 10 8 10 4 0 20 25 37 55 16 30 32 55 36 55 4
0 12 14 19 30 7 17 16 30 21 30 5 0 9 5 9 10 0 12 52 94 63 98 4 2 7 8 7 13 0
9 48 88 60 99 3 3 19 28 35 55 15 28 31 52 35 55 4 3 20 28 35 55 16 28 41 66
57 86 15 20 28 41 28 47 0 5 15 29 33 53 36 50 49 70 73 114 9 17 30 46 45 65
16 19 29 38 29 42 0 8 67 111 120 185 16 23 30 46 30 51 0 4 7 17 15 27 9 11
34 49 57 84 l42 64 -30 24 c-45 36 -46 37 -104 71 -30 18 -65 39 -77 48 -21
15 -23 14 -52 -27z"/>
</g>
</svg>
